<svg width="14" height="10" viewBox="0 0 14 10" fill="none" xmlns="http://www.w3.org/2000/svg">
<path d="M12.5446 0H1.45545C0.669967 0 0 0.622222 0 1.4V8.6C0 9.35555 0.646865 10 1.45545 10H12.5446C13.33 10 14 9.37778 14 8.6V1.37778C14 0.622222 13.33 0 12.5446 0ZM12.5446 1C12.5677 1 12.5908 1 12.6139 1L7 4.46667L1.38614 1C1.40924 1 1.43234 1 1.45545 1H12.5446ZM12.5446 8.95556H1.45545C1.22442 8.95556 1.0396 8.77778 1.0396 8.55556V1.97778L6.44554 5.31111C6.60726 5.42222 6.79208 5.46667 6.9769 5.46667C7.16172 5.46667 7.34653 5.42222 7.50825 5.31111L12.9142 1.97778V8.57778C12.9604 8.8 12.7756 8.95556 12.5446 8.95556Z" fill="white"/>
</svg>
