<svg width="13" height="13" viewBox="0 0 13 13" fill="none" xmlns="http://www.w3.org/2000/svg">
<path d="M12.9941 3.81613C12.9731 3.14516 12.8472 2.6629 12.7002 2.22258C12.5533 1.78226 12.3224 1.42581 11.9655 1.06935C11.6086 0.712903 11.2518 0.503226 10.8319 0.335484C10.4121 0.167742 9.95026 0.0629032 9.23653 0.0419355C8.50181 8.33183e-09 8.29189 0 6.50756 0C4.72323 0 4.5343 4.16592e-09 3.82057 0.0209677C3.10683 0.0419355 2.666 0.167742 2.22516 0.314516C1.78433 0.46129 1.42746 0.712903 1.0706 1.06935C0.713732 1.42581 0.482819 1.78226 0.335874 2.22258C0.167937 2.64194 0.0629764 3.10323 0.0419842 3.81613C0.0209921 4.52903 0 4.71774 0 6.5C0 8.28226 4.17076e-09 8.47097 0.0209921 9.18387C0.0419842 9.89677 0.167937 10.3371 0.314882 10.7774C0.461827 11.2177 0.69274 11.5742 1.04961 11.9306C1.40647 12.2871 1.78433 12.5177 2.20417 12.6645C2.62401 12.8113 3.08584 12.9371 3.79957 12.9581C4.51331 13 4.70223 13 6.48656 13C8.2709 13 8.45982 13 9.17356 12.979C9.88729 12.9581 10.3281 12.8323 10.769 12.6855C11.2098 12.5387 11.5667 12.3081 11.9235 11.9516C12.2804 11.5952 12.5113 11.2177 12.6582 10.7984C12.8052 10.379 12.9311 9.91774 12.9521 9.20484C12.9731 8.53387 12.9731 8.32419 12.9731 6.54194C12.9731 4.75968 13.0151 4.52903 12.9941 3.81613ZM11.8186 9.12097C11.7976 9.75 11.6716 10.0855 11.5877 10.3371C11.4617 10.6306 11.3148 10.8613 11.0838 11.071C10.8529 11.3016 10.643 11.4274 10.3491 11.5742C10.1182 11.6581 9.78233 11.7839 9.13157 11.8048C8.45982 11.8048 8.2499 11.8048 6.52855 11.8048C4.8072 11.8048 4.57628 11.8048 3.90453 11.7839C3.27477 11.7629 2.9389 11.6371 2.68699 11.5532C2.3931 11.4274 2.16219 11.2806 1.95227 11.05C1.72135 10.8194 1.5954 10.6097 1.44846 10.3161C1.36449 10.0855 1.23854 9.75 1.21754 9.1C1.21754 8.45 1.21754 8.24032 1.21754 6.5C1.21754 4.75968 1.21754 4.55 1.23854 3.87903C1.25953 3.25 1.38548 2.91452 1.46945 2.6629C1.5954 2.36935 1.74235 2.13871 1.95227 1.92903C2.18318 1.69839 2.3931 1.57258 2.68699 1.44677C2.9179 1.3629 3.25378 1.2371 3.90453 1.21613C4.57628 1.19516 4.7862 1.19516 6.52855 1.19516C8.2709 1.19516 8.48082 1.19516 9.15256 1.21613C9.78233 1.2371 10.1182 1.3629 10.3701 1.44677C10.664 1.57258 10.8949 1.71935 11.1048 1.92903C11.3357 2.15968 11.4617 2.36935 11.6086 2.6629C11.6926 2.89355 11.8186 3.22903 11.8396 3.87903C11.8605 4.55 11.8605 4.75968 11.8605 6.5C11.8605 8.24032 11.8396 8.45 11.8186 9.12097Z" fill="white"/>
<path d="M6.9906 4C5.31661 4 4 5.35849 4 7C4 8.67924 5.35423 10 6.9906 10C8.62696 10 10 8.67924 10 7C10 5.32075 8.66458 4 6.9906 4ZM6.9906 8.96226C5.89969 8.96226 5.03448 8.07547 5.03448 7C5.03448 5.92453 5.9185 5.03774 6.9906 5.03774C8.0815 5.03774 8.94671 5.90566 8.94671 7C8.94671 8.09434 8.0815 8.96226 6.9906 8.96226Z" fill="white"/>
<path d="M9.5 4C9.77615 4 10 3.77614 10 3.5C10 3.22385 9.77615 3 9.5 3C9.22385 3 9 3.22385 9 3.5C9 3.77614 9.22385 4 9.5 4Z" fill="white"/>
</svg>
