<svg width="13" height="13" viewBox="0 0 13 13" fill="none" xmlns="http://www.w3.org/2000/svg">
<path d="M12.0913 0H0.947923C0.421299 0 0 0.419355 0 0.943548V12.0565C0 12.5597 0.421299 13 0.947923 13H12.0492C12.5758 13 12.9971 12.5806 12.9971 12.0565V0.922581C13.0392 0.419355 12.6179 0 12.0913 0ZM3.8549 11.05H1.93799V4.86452H3.8549V11.05ZM2.88591 4.00484C2.25396 4.00484 1.76946 3.50161 1.76946 2.89355C1.76946 2.28548 2.27502 1.78226 2.88591 1.78226C3.49679 1.78226 4.00235 2.28548 4.00235 2.89355C4.00235 3.50161 3.53892 4.00484 2.88591 4.00484ZM11.1223 11.05H9.2054V8.05161C9.2054 7.33871 9.18433 6.39516 8.19428 6.39516C7.18316 6.39516 7.03571 7.19194 7.03571 7.98871V11.05H5.11879V4.86452H6.99358V5.72419H7.01464C7.28849 5.22097 7.89937 4.71774 8.84729 4.71774C10.8063 4.71774 11.1644 5.97581 11.1644 7.69516V11.05H11.1223Z" fill="white"/>
</svg>
