<svg width="16" height="16" viewBox="0 0 16 16" fill="none" xmlns="http://www.w3.org/2000/svg">
<path d="M13.5352 1.98939C13.3425 1.99777 13.1657 2.05317 13.0104 2.11439C12.8669 2.17089 12.3517 2.38745 11.5313 2.73157C10.7108 3.07569 9.62365 3.53196 8.46485 4.01933C6.14723 4.99408 3.54282 6.09056 2.20833 6.65215C2.1625 6.67124 1.97639 6.72822 1.77083 6.88522C1.5648 7.04259 1.33594 7.38412 1.33594 7.75762C1.33594 8.05892 1.48634 8.36578 1.66797 8.54147C1.84959 8.71716 2.03366 8.7993 2.1875 8.86048C2.63756 9.03971 4.02833 9.59512 4.63282 9.83704C4.84459 10.4717 5.34196 11.9665 5.45834 12.3344H5.45704C5.55171 12.6339 5.64399 12.8291 5.77215 12.992C5.83622 13.0734 5.91271 13.1473 6.00652 13.2055C6.04251 13.2279 6.08237 13.2452 6.12241 13.2615C6.12799 13.2639 6.13373 13.2645 6.13933 13.2667L6.12371 13.2628C6.13531 13.2675 6.14573 13.2744 6.15756 13.2784C6.17683 13.2851 6.1902 13.2849 6.21615 13.2902C6.30749 13.3183 6.39866 13.337 6.48308 13.337C6.84549 13.337 7.06771 13.1404 7.06771 13.1404L7.08204 13.13L8.64715 11.8058L10.5638 13.5779C10.5981 13.6264 10.8721 13.9985 11.5078 13.9985C11.8866 13.9985 12.1873 13.8123 12.3789 13.6157C12.5705 13.419 12.6899 13.2178 12.7435 12.9451V12.9425V12.9412C12.7808 12.7476 14.6211 3.51021 14.6211 3.51021L14.6172 3.52583C14.6743 3.27094 14.6912 3.02443 14.6237 2.77323C14.5563 2.52202 14.3742 2.27687 14.155 2.14823C13.9357 2.01958 13.7278 1.98101 13.5352 1.98939ZM13.2721 3.44902C13.1998 3.81195 11.5621 12.0398 11.4557 12.5857L9.55209 10.8266C9.0614 10.373 8.29626 10.357 7.78646 10.7876L6.81511 11.6092L7.33333 9.58314C7.33333 9.58314 10.9084 5.96438 11.1237 5.75372C11.297 5.58505 11.3333 5.52592 11.3333 5.46726C11.3333 5.38926 11.2932 5.33314 11.2005 5.33314C11.1172 5.33314 11.004 5.41299 10.944 5.45033C10.1783 5.92768 6.90009 7.79596 5.31249 8.69903C5.25286 8.66332 5.1942 8.62626 5.1289 8.60007C4.60798 8.39158 3.60674 7.99018 3.02082 7.75632C4.40367 7.17432 6.7741 6.17702 8.98177 5.24851C10.1404 4.76121 11.2272 4.30454 12.0469 3.96075C12.7388 3.67054 13.0997 3.52027 13.2721 3.44902ZM11.4349 12.6821H11.4362C11.4362 12.6823 11.435 12.6871 11.4349 12.6873C11.436 12.6816 11.4341 12.6862 11.4349 12.6821Z" fill="white"/>
</svg>
