<svg width="12" height="10" viewBox="0 0 12 10" fill="none" xmlns="http://www.w3.org/2000/svg">
<path d="M3.73548 10C8.30323 10 10.7806 6.16142 10.7806 2.83464C10.7806 2.7559 10.7806 2.61811 10.7613 2.5C11.2452 2.14567 11.671 1.69291 12 1.20079C11.5355 1.41732 11.071 1.53543 10.5871 1.59449C11.1097 1.27953 11.4968 0.7874 11.671 0.19685C11.1871 0.472441 10.6839 0.688975 10.0839 0.807085C9.61935 0.314961 9 0 8.28387 0C6.90968 0 5.7871 1.14173 5.7871 2.53937C5.7871 2.73622 5.80645 2.93307 5.84516 3.12992C3.85161 2.99212 2.03226 1.98819 0.793548 0.472441C0.580645 0.86614 0.464516 1.27953 0.464516 1.73228C0.464516 2.61811 0.909677 3.36614 1.5871 3.8189C1.18065 3.79921 0.793548 3.6811 0.464516 3.50394C0.464516 3.52362 0.464516 3.52362 0.464516 3.52362C0.464516 4.72441 1.31613 5.76772 2.43871 6.00394C2.22581 6.06299 1.99355 6.08268 1.81935 6.08268C1.66452 6.08268 1.49032 6.06299 1.35484 6.02362C1.68387 7.02756 2.59355 7.75591 3.67742 7.77559C2.82581 8.44488 1.76129 8.85827 0.619355 8.85827C0.387097 8.89764 0.193548 8.85827 0 8.83858C1.04516 9.58661 2.34194 10 3.73548 10Z" fill="white"/>
</svg>
