<svg width="16" height="12" viewBox="0 0 16 12" fill="none" xmlns="http://www.w3.org/2000/svg">
<path d="M9.15023 5.82224L6.77307 7.18062V4.46387L9.15023 5.82224Z" fill="black" stroke="white" stroke-linecap="round" stroke-linejoin="round"/>
<path d="M1 6.30282V5.34171C1 3.37522 1 2.39199 1.615 1.75935C2.23 1.1267 3.19823 1.09932 5.13468 1.04455C6.05229 1.0186 6.98962 1 7.79187 1C8.59413 1 9.53148 1.0186 10.4491 1.04455C12.3855 1.09932 13.3537 1.1267 13.9687 1.75935C14.5837 2.39199 14.5837 3.37522 14.5837 5.34171V6.30282C14.5837 8.26928 14.5837 9.25254 13.9687 9.88513C13.3537 10.5178 12.3856 10.5452 10.4491 10.6C9.53148 10.6259 8.59413 10.6445 7.79187 10.6445C6.98962 10.6445 6.05225 10.6259 5.13462 10.6C3.1982 10.5452 2.22999 10.5178 1.61499 9.88513C1 9.25254 1 8.26928 1 6.30282Z" stroke="white"/>
</svg>
